<svg width="32" height="35" viewBox="0 0 32 35" fill="none" xmlns="http://www.w3.org/2000/svg">
<path d="M16 28.6364C16.3165 28.6364 16.6258 28.5431 16.8889 28.3682C17.152 28.1934 17.3571 27.945 17.4782 27.6543C17.5993 27.3636 17.631 27.0437 17.5693 26.7351C17.5075 26.4265 17.3551 26.143 17.1314 25.9205C16.9076 25.698 16.6225 25.5465 16.3121 25.4851C16.0018 25.4237 15.6801 25.4552 15.3877 25.5756C15.0953 25.6961 14.8455 25.9 14.6696 26.1616C14.4938 26.4232 14.4 26.7308 14.4 27.0455C14.4 27.4674 14.5686 27.872 14.8686 28.1704C15.1687 28.4688 15.5757 28.6364 16 28.6364ZM24 28.6364C24.3165 28.6364 24.6258 28.5431 24.8889 28.3682C25.152 28.1934 25.3571 27.945 25.4782 27.6543C25.5993 27.3636 25.631 27.0437 25.5693 26.7351C25.5075 26.4265 25.3551 26.143 25.1314 25.9205C24.9076 25.698 24.6225 25.5465 24.3121 25.4851C24.0018 25.4237 23.6801 25.4552 23.3877 25.5756C23.0953 25.6961 22.8455 25.9 22.6696 26.1616C22.4938 26.4232 22.4 26.7308 22.4 27.0455C22.4 27.4674 22.5686 27.872 22.8686 28.1704C23.1687 28.4688 23.5757 28.6364 24 28.6364ZM24 22.2727C24.3165 22.2727 24.6258 22.1794 24.8889 22.0046C25.152 21.8298 25.3571 21.5813 25.4782 21.2906C25.5993 20.9999 25.631 20.6801 25.5693 20.3714C25.5075 20.0628 25.3551 19.7794 25.1314 19.5569C24.9076 19.3344 24.6225 19.1829 24.3121 19.1215C24.0018 19.0601 23.6801 19.0916 23.3877 19.212C23.0953 19.3324 22.8455 19.5363 22.6696 19.798C22.4938 20.0596 22.4 20.3672 22.4 20.6818C22.4 21.1038 22.5686 21.5084 22.8686 21.8068C23.1687 22.1051 23.5757 22.2727 24 22.2727ZM16 22.2727C16.3165 22.2727 16.6258 22.1794 16.8889 22.0046C17.152 21.8298 17.3571 21.5813 17.4782 21.2906C17.5993 20.9999 17.631 20.6801 17.5693 20.3714C17.5075 20.0628 17.3551 19.7794 17.1314 19.5569C16.9076 19.3344 16.6225 19.1829 16.3121 19.1215C16.0018 19.0601 15.6801 19.0916 15.3877 19.212C15.0953 19.3324 14.8455 19.5363 14.6696 19.798C14.4938 20.0596 14.4 20.3672 14.4 20.6818C14.4 21.1038 14.5686 21.5084 14.8686 21.8068C15.1687 22.1051 15.5757 22.2727 16 22.2727ZM27.2 3.18182H25.6V1.59091C25.6 1.16897 25.4314 0.76432 25.1314 0.465966C24.8313 0.167613 24.4243 0 24 0C23.5757 0 23.1687 0.167613 22.8686 0.465966C22.5686 0.76432 22.4 1.16897 22.4 1.59091V3.18182H9.6V1.59091C9.6 1.16897 9.43143 0.76432 9.13137 0.465966C8.83131 0.167613 8.42435 0 8 0C7.57565 0 7.16869 0.167613 6.86863 0.465966C6.56857 0.76432 6.4 1.16897 6.4 1.59091V3.18182H4.8C3.52696 3.18182 2.30606 3.68466 1.40589 4.57972C0.505713 5.47478 0 6.68874 0 7.95455V30.2273C0 31.4931 0.505713 32.707 1.40589 33.6021C2.30606 34.4972 3.52696 35 4.8 35H27.2C28.473 35 29.6939 34.4972 30.5941 33.6021C31.4943 32.707 32 31.4931 32 30.2273V7.95455C32 6.68874 31.4943 5.47478 30.5941 4.57972C29.6939 3.68466 28.473 3.18182 27.2 3.18182ZM28.8 30.2273C28.8 30.6492 28.6314 31.0539 28.3314 31.3522C28.0313 31.6506 27.6243 31.8182 27.2 31.8182H4.8C4.37565 31.8182 3.96869 31.6506 3.66863 31.3522C3.36857 31.0539 3.2 30.6492 3.2 30.2273V15.9091H28.8V30.2273ZM28.8 12.7273H3.2V7.95455C3.2 7.53261 3.36857 7.12796 3.66863 6.8296C3.96869 6.53125 4.37565 6.36364 4.8 6.36364H6.4V7.95455C6.4 8.37648 6.56857 8.78113 6.86863 9.07949C7.16869 9.37784 7.57565 9.54545 8 9.54545C8.42435 9.54545 8.83131 9.37784 9.13137 9.07949C9.43143 8.78113 9.6 8.37648 9.6 7.95455V6.36364H22.4V7.95455C22.4 8.37648 22.5686 8.78113 22.8686 9.07949C23.1687 9.37784 23.5757 9.54545 24 9.54545C24.4243 9.54545 24.8313 9.37784 25.1314 9.07949C25.4314 8.78113 25.6 8.37648 25.6 7.95455V6.36364H27.2C27.6243 6.36364 28.0313 6.53125 28.3314 6.8296C28.6314 7.12796 28.8 7.53261 28.8 7.95455V12.7273ZM8 22.2727C8.31645 22.2727 8.62579 22.1794 8.88891 22.0046C9.15203 21.8298 9.35711 21.5813 9.47821 21.2906C9.59931 20.9999 9.63099 20.6801 9.56926 20.3714C9.50752 20.0628 9.35513 19.7794 9.13137 19.5569C8.90761 19.3344 8.62251 19.1829 8.31214 19.1215C8.00177 19.0601 7.68007 19.0916 7.38771 19.212C7.09535 19.3324 6.84546 19.5363 6.66965 19.798C6.49384 20.0596 6.4 20.3672 6.4 20.6818C6.4 21.1038 6.56857 21.5084 6.86863 21.8068C7.16869 22.1051 7.57565 22.2727 8 22.2727ZM8 28.6364C8.31645 28.6364 8.62579 28.5431 8.88891 28.3682C9.15203 28.1934 9.35711 27.945 9.47821 27.6543C9.59931 27.3636 9.63099 27.0437 9.56926 26.7351C9.50752 26.4265 9.35513 26.143 9.13137 25.9205C8.90761 25.698 8.62251 25.5465 8.31214 25.4851C8.00177 25.4237 7.68007 25.4552 7.38771 25.5756C7.09535 25.6961 6.84546 25.9 6.66965 26.1616C6.49384 26.4232 6.4 26.7308 6.4 27.0455C6.4 27.4674 6.56857 27.872 6.86863 28.1704C7.16869 28.4688 7.57565 28.6364 8 28.6364Z" fill="#0067B1"/>
</svg>
