<svg width="36" height="36" viewBox="0 0 36 36" fill="none" xmlns="http://www.w3.org/2000/svg">
<path d="M12.75 17.507H9.25002C8.78589 17.507 8.34077 17.6913 8.01258 18.0195C7.68439 18.3477 7.50001 18.7928 7.50001 19.257C7.50001 19.7211 7.68439 20.1662 8.01258 20.4944C8.34077 20.8226 8.78589 21.007 9.25002 21.007H12.75C13.2141 21.007 13.6593 20.8226 13.9875 20.4944C14.3156 20.1662 14.5 19.7211 14.5 19.257C14.5 18.7928 14.3156 18.3477 13.9875 18.0195C13.6593 17.6913 13.2141 17.507 12.75 17.507ZM11 14.007H18C18.4641 14.007 18.9093 13.8226 19.2375 13.4944C19.5656 13.1662 19.75 12.7211 19.75 12.257C19.75 11.7928 19.5656 11.3477 19.2375 11.0195C18.9093 10.6913 18.4641 10.507 18 10.507H11C10.5359 10.507 10.0908 10.6913 9.76258 11.0195C9.43439 11.3477 9.25002 11.7928 9.25002 12.257C9.25002 12.7211 9.43439 13.1662 9.76258 13.4944C10.0908 13.8226 10.5359 14.007 11 14.007ZM12.75 24.507H9.25002C8.78589 24.507 8.34077 24.6913 8.01258 25.0195C7.68439 25.3477 7.50001 25.7928 7.50001 26.257C7.50001 26.7211 7.68439 27.1662 8.01258 27.4944C8.34077 27.8226 8.78589 28.007 9.25002 28.007H12.75C13.2141 28.007 13.6593 27.8226 13.9875 27.4944C14.3156 27.1662 14.5 26.7211 14.5 26.257C14.5 25.7928 14.3156 25.3477 13.9875 25.0195C13.6593 24.6913 13.2141 24.507 12.75 24.507ZM33.75 17.507H28.5V1.75696C28.5012 1.44859 28.421 1.14537 28.2673 0.878011C28.1136 0.61065 27.8921 0.388638 27.625 0.234456C27.359 0.0808611 27.0572 0 26.75 0C26.4428 0 26.141 0.0808611 25.875 0.234456L20.625 3.24446L15.375 0.234456C15.109 0.0808611 14.8072 0 14.5 0C14.1928 0 13.891 0.0808611 13.625 0.234456L8.37501 3.24446L3.12501 0.234456C2.85898 0.0808611 2.5572 0 2.25001 0C1.94282 0 1.64105 0.0808611 1.37501 0.234456C1.10796 0.388638 0.886381 0.61065 0.732726 0.878011C0.57907 1.14537 0.49879 1.44859 0.500014 1.75696V29.757C0.500014 31.1493 1.05314 32.4847 2.0377 33.4693C3.02227 34.4538 4.35763 35.007 5.75001 35.007H30.25C31.6424 35.007 32.9778 34.4538 33.9623 33.4693C34.9469 32.4847 35.5 31.1493 35.5 29.757V19.257C35.5 18.7928 35.3156 18.3477 34.9875 18.0195C34.6593 17.6913 34.2141 17.507 33.75 17.507ZM5.75001 31.507C5.28589 31.507 4.84077 31.3226 4.51258 30.9944C4.18439 30.6662 4.00001 30.2211 4.00001 29.757V4.78446L7.50001 6.77946C7.77011 6.92053 8.0703 6.9942 8.37501 6.9942C8.67973 6.9942 8.97992 6.92053 9.25002 6.77946L14.5 3.76946L19.75 6.77946C20.0201 6.92053 20.3203 6.9942 20.625 6.9942C20.9297 6.9942 21.2299 6.92053 21.5 6.77946L25 4.78446V29.757C25.0047 30.354 25.1113 30.9458 25.315 31.507H5.75001ZM32 29.757C32 30.2211 31.8156 30.6662 31.4875 30.9944C31.1593 31.3226 30.7141 31.507 30.25 31.507C29.7859 31.507 29.3408 31.3226 29.0126 30.9944C28.6844 30.6662 28.5 30.2211 28.5 29.757V21.007H32V29.757ZM20.73 24.8045C20.6325 24.7382 20.5265 24.6853 20.415 24.647C20.3108 24.5937 20.1984 24.5582 20.0825 24.542C19.8014 24.4857 19.5107 24.4993 19.2361 24.5817C18.9614 24.6641 18.7112 24.8127 18.5075 25.0145C18.1877 25.3498 18.0065 25.7936 18 26.257C17.9972 26.4845 18.0388 26.7104 18.1225 26.922C18.2176 27.1346 18.3478 27.3298 18.5075 27.4995C18.6776 27.654 18.8729 27.7783 19.085 27.867C19.2945 27.9595 19.521 28.0074 19.75 28.0074C19.979 28.0074 20.2055 27.9595 20.415 27.867C20.6271 27.7783 20.8224 27.654 20.9925 27.4995C21.1547 27.3359 21.283 27.142 21.3701 26.9288C21.4572 26.7156 21.5013 26.4873 21.5 26.257C21.4936 25.7936 21.3123 25.3498 20.9925 25.0145C20.9094 24.9392 20.8217 24.8691 20.73 24.8045ZM20.975 18.0145C20.7707 17.8155 20.5208 17.6694 20.2471 17.5891C19.9734 17.5087 19.6843 17.4965 19.4048 17.5534C19.1253 17.6103 18.864 17.7347 18.6435 17.9157C18.4231 18.0967 18.2502 18.3289 18.14 18.592C18.0311 18.8571 17.989 19.1449 18.0173 19.4301C18.0457 19.7153 18.1437 19.9892 18.3026 20.2277C18.4616 20.4662 18.6768 20.662 18.9291 20.7978C19.1815 20.9337 19.4634 21.0055 19.75 21.007C20.2141 21.007 20.6593 20.8226 20.9875 20.4944C21.3156 20.1662 21.5 19.7211 21.5 19.257C21.4972 19.0283 21.4497 18.8023 21.36 18.592C21.2757 18.3735 21.1442 18.1763 20.975 18.0145Z" fill="#D53C34"/>
</svg>
