<svg xmlns="http://www.w3.org/2000/svg" width="65" height="75" viewBox="0 0 65 75"><path d="M17.659 53.317c-.502-.108-.929-.304-1.392-.512l-.08-1.583c-.259-5.164-.646-9.144-1.442-14.829-.737-5.264-.824-6.404-.746-9.693.039-1.623.139-3.411.223-3.974.587-4.04.332-2.042.153 2.529-.192 4.9.28 6.796 1.827 12.342 1.918 6.875 2.448 9.912 2.448 14.025 0 2.04.08 1.903-.991 1.695zm35.296-13.07c-.959-.446-3.088-.719-5.406-.319-1.655.286-3.432.923-5.686 1.635-5.26 1.937-6.583 1.37-7.065.038-.273-.755-.295-1.252-.418-1.651-.397-1.288-3.747-2.19-5.681-1.897-2.921.234-5.411 1.475-7.316 3.773 0 0-.378-2.435-.359-4.713l.649-.549c1.38-1.168 2.578-1.825 4.482-2.459 2.298-.765 5.267-.982 6.854-.499.503.153.572.153.572-.004 0-.098-.57-1.393-1.267-2.877-1.244-2.65-1.793-4.224-1.97-5.651l-.075-.602-1.084-.136c-.596-.075-1.924-.232-2.95-.348-1.027-.117-2.137-.313-2.469-.436-.331-.123-.765-.224-.765-.224-1.388 1.494-3.673 2.395-5.337 1.638-2.445-1.112-2.199-3.673-1.555-6.047.415-1.458 1.888-4.821 2.907-6.634l.971-1.729-.371-.468c-1.218-1.538-1.208-3.758.023-5.031l.377-.389-1.015.074c-1.373.1-1.798.279-1.798.758 0 .251.134.516.423.835.331.366.384.484.243.538-.317.122-1.151-.263-1.763-.814-.54-.485-.714-.562-1.918-.844-1.384-.324-3.163-.423-3.311-.183-.233.377 1.492 2.148 2.745 2.818 1.115.596 1.691 1.047 1.994 1.561.286.484.248.552-.261.471-.293-.047-.495.023-.882.304-.818.595-1.184 1.26-1.769 3.222-1.845 6.185-2.717 13.062-2.373 18.706.235 3.854.391 4.516 1.652 6.989.975 1.913 1.245 2.832 1.33 4.522.104 2.072-.309 3.792-1.432 5.963-.605 1.17-1.255 2.098-1.132 1.617.168-.656.55-3.78.618-5.057.083-1.564-.072-3.496-.375-4.664-.179-.69-1.154-3.052-1.353-3.261-.052-.054-.31-.016-.55.084-.534.223-.556.113-.071-.352.278-.266.396-.337.398-.562l-.127-.458c-.135-.153-.972-.125-1.258.071l-.337.261c.202-.283.213-.624.62-.907-.054-.089.561-.371.766-.449l-.102-.571c-.189-.227-1.056-.191-1.493.095-.472.525-.493.092-.062-.432.231-.281.485-.4.841-.425.262-.023.527-.071.527-.071l-.156-.853c-.188-.195-1.503-.148-1.841.074-.383.251-.403.077-.04-.34.194-.223.324-.383.866-.492.417-.084.896-.199.896-.199l-.072-.663-1-.053c-.428-.023-.75.038-.947.089-.505.472-.624.216-.105-.358.248-.274.456-.376.893-.409.324-.025.955-.016 1.041-.065l-.095-1.035-.91-.009c-.572-.006-1.138.071-1.385.174-.738.348-.583.173-.147-.257.396-.39.843-.534 1.203-.557l1.21-.08-.057-1.076c-.29-.174-1.443-.146-2.2.102-1.061.413-1.195.403-.106-.431.395-.231.754-.465 1.442-.464l.946.001.076-1.084s-.091-.115-.483-.228c-.555-.159-1.815.068-2.58.465l-.602.312.303-.394c.484-.627 1.316-1.102 2.313-1.108.464-.003 1.121.189 1.121.189l.121-.891-.316-.179c-.594-.249-2.256-.147-3.137.191-.36.139-.676.231-.701.206-.114-.114 1.126-.86 1.768-1.045 1.058-.262 1.476-.195 2.54-.046l.077-.632c-.25-.348-.499-.549-1.484-.543-.719.005-2.401.319-3.11.582-.239.089-.239.087-.006-.178.99-.838 2.337-1.427 3.279-1.369 1.017-.011 1.484.241 1.484.241l.134-.915s-.095-.152-1.67-.23c-1.331-.066-2.404.084-3.252.455-.649.284-.647.163.004-.32 1.468-1.09 3.249-1.741 5.059-.953l.178-.808-.396-.157c-1.448-.605-3.91-.355-5.451.555l-.432.255.304-.395c.389-.505 1.478-1.108 2.362-1.309.853-.194 2.56-.197 3.261-.007.288.078.482.135.501.114.019-.021.109-.602.154-.814 0 0 .083-.009-.418-.159-1.183-.356-4.012-.109-5.858.513l-.682.23.421-.356c.586-.495 1.613-1.026 2.468-1.278.965-.283 2.923-.287 3.664-.006.292.111.578.17.578.17.049-.254.142-.539.178-.808-1.008-.372-2.49-.594-3.69-.521-1.315-.027-3.148.609-4.038.894 1.332-1.336 3.502-1.859 4.959-1.868 1.106.002 1.933.187 2.383.316.364.104.657.13.657.13l.255-.811s-.082-.054-.524-.23c-1.723-.689-5.276-.535-7.554.327-.465.176.329-.387 1.084-.769 1.692-.856 4.456-1.155 6.201-.67.575.16.981.335 1.233.405l.209-.529c-.267-.408-1.307-.979-2.691-1.157-1.916-.246-4.656.223-6.074 1.04l-.52.3.372-.47c1.559-1.969 5.101-2.488 8.679-1.271.484.165.886.286.894.27l.226-.496c.117-.257.195-.483.174-.504-.021-.021-.502-.172-1.07-.337-2.941-.852-6.123-.715-8.897.384l-.662.263.542-.501c.694-.641 2.21-1.355 3.397-1.598 1.823-.374 4.787-.199 6.698.396.408.127.742.187.742.133 0-.054-.221-.288-.491-.519-.997-.854-3.21-1.379-5.168-1.226-2.02.157-4.539.816-5.765 1.507-.414.233-.406.218.15-.301 1.9-1.771 6.555-2.531 9.244-1.51.322.122.582.187.578.144-.004-.043-.193-.323-.42-.621-.567-.747-1.057-1.695-.937-1.814.171-.169 4.253-.169 4.582-.131.457.053.62-.035 1.031-.103.883-.273 3.335-.712 4.63-.829.082-.007.315-.343.518-.746.33-.653.444-.767 1.055-1.054.59-.276.838-.32 1.769-.314.895.006 1.225.065 1.894.338l.811.331.543-.374c1.347-.927 2.508-1.243 3.365-.916.648.247.836.451 1.118 1.214.233.629.266.655 1.64 1.273.319.144.726.383.903.531.178.148.434.305.571.347.136.043 1.87.029 3.853-.03 3.698-.11 6.266-.035 7.949.233.909.144.983.18 1.557.758.576.58.606.644.691 1.456.155 1.477.245 4.243.158 4.824-.058.385-.207.697-.48 1.002-.467.522-.628.987-.737 2.128-.074.783-.313 1.49-.684 2.029-.131.19-.118.243.087.361.638.366 1.105 1.023 1.489 2.099.665 1.86.962 2.135 2.669 2.482 2.107.428 7.062.529 11.566.235l1.154-.075-.102.856c-.056.471-.156.996-.221 1.168-.108.284-.164.307-.631.249-.282-.035-.973-.095-1.535-.135-2.496-.175-9.765-1.012-11.639-1.34-.529-.092-.742.273-.841 1.441-.043.509-.12.925-.17.925-.169 0-.258-.967-.176-1.904.08-.918.078-.929-.291-1.304-.456-.464-1.272-2.204-1.363-2.907-.09-.691-.262-.868-.842-.868-.362 0-.554-.076-.765-.305l-.282-.305-2.14.073c-1.909.065-2.988.175-3.693.378-.215.062-.224.166-.156 1.756.04.93.126 1.744.192 1.81.325.325 1.424-.59 1.695-1.41.088-.266.22-.432.343-.432.366 0 2.791.759 2.791.874 0 .062-.121.282-.269.49-.784 1.101-.082 4.918 1.222 6.645l.492.652 1.174-.025c1.121-.024 1.204-.008 1.836.356 1.206.695 2.649.879 7.466.951 4.577.068 5.456.122 5.387.327-.128.383-2.747.689-5.907.689-2.511 0-3.712-.107-5.535-.495-.648-.138-1.257-.22-1.355-.183-.245.094-.223.734.033.991.53.53 1.712.906 3.391 1.08 4.51.468 6.4 1.022 7.153 2.096.326.465.344.725.049.725-.077 0-1.063-.295-2.19-.655-3.244-1.037-5.418-1.367-7.97-1.211-.784.048-2.161.078-3.06.066-1.363-.018-1.661.01-1.793.169-.124.149-.139.563-.071 1.904.048.942.106 1.732.129 1.756.023.023.601-.175 1.284-.44 2.38-.925 4.14-1.328 6.239-1.43 1.47-.071 3.147.139 4.075.51l.471.188-.623 1.227c-.942 1.604-1.665 4.012-1.665 4.012zm-15.4-1.785c0-.021-.076-.306-.17-.632-.094-.327-.29-1.136-.436-1.798-.439-1.989-.812-3.029-1.856-5.178-.547-1.126-1.114-2.453-1.26-2.95-.146-.497-.483-1.343-.748-1.882-.316-.641-.527-1.275-.61-1.836-.07-.472-.165-.858-.212-.858-.211 0-.639.626-.742 1.084-.149.664.039 1.688.558 3.033.222.576.603 1.713.846 2.529.243.815.657 2.051.919 2.747.407 1.078.556 1.333 1.015 1.729.687.594.963 1.142 1.111 2.216.129.93.3 1.264.826 1.611.289.191.759.306.759.186zm2.621-.218l.273-.1-.032-2.97-.032-2.97-.311-.232c-.171-.128-.551-.263-.843-.301-1.721-.221-2.946-1.742-3.245-4.028-.1-.766-.102-1.78-.007-3.816.071-1.525.099-2.853.061-2.95-.111-.29-.738-.494-1.065-.345-.668.305-1.147.881-1.393 1.676-.347 1.125-.314 1.649.166 2.632.224.46.772 1.648 1.217 2.642.445.993 1.027 2.267 1.294 2.83.947 1.997 1.843 4.459 2.436 6.69.175.659.34 1.264.367 1.346.049.151.545.105 1.113-.104zm2.249-.748c.572-.221 1.086-.451 1.141-.512.097-.104.054-.864-.225-4.023-.067-.762-.123-1.563-.124-1.78-.003-.538-.214-.586-1.199-.269-.692.223-.843.319-.909.581-.105.418.068 6.405.185 6.405.05 0 .559-.181 1.131-.402zm4.783-5.863c.468-.13.703-.531.703-1.201 0-.292-.109-.376-1.054-.813-1.621-.749-2.529-1.113-2.781-1.113-.174 0-.247.115-.305.475-.114.711-.316.728-.316.027 0-.433-.052-.616-.19-.669-.248-.095-5.512-.095-5.76 0-.325.125-.211.518.291 1.011.265.26.482.523.482.584 0 .222.978.5 1.761.5.738 0 1.985-.213 2.904-.497.215-.066.438-.091.497-.055.058.036.131.366.161.734.031.368.111.724.178.791.068.068.578.167 1.134.22 1.471.142 1.804.143 2.295.006zm-4.392-4.236c.468-.368.187-1.464-.416-1.625-.181-.048-1.44-.09-2.797-.092l-2.469-.004-.037.505c-.02.278.022.723.094.991l.131.486 2.675-.074c1.471-.041 2.74-.125 2.818-.186zm-1.086-2.341l.984-.077.04-.784c.022-.431-.015-.855-.081-.941-.091-.119-.753-.162-2.748-.179-3.001-.025-3.026-.018-2.991.875.028.711.119.942.422 1.064.309.125 2.983.151 4.375.042zm-21.598-1.276c.392-.209.977-.617 1.3-.907l.586-.527-.225-.442c-.559-1.098-.95-3.622-.565-3.642.06-.003.336.56.614 1.251.523 1.301.994 2.101 1.135 1.928 1.716-2.118 3.216-4.266 4.458-6.623-.189-.103-1.174-.913-2.283-1.972-2.087-.242-3.592-1.138-4.613-1.79-.247.306-1.333 2.397-1.561 3.005-.162.433-.43 1.056-.595 1.385-.385.768-1.244 3.363-1.475 4.451-.254 1.199-.232 2.528.052 3.153.206.454.728.908 1.331 1.158.334.139 1.124-.045 1.843-.428zm10.214-.652c.539-.104 1.99-1.566 2.429-2.447.405-.814.437-1.72.084-2.412-.249-.487-.311-.843-.147-.843.264 0 .632.432.97 1.138.207.434.425.788.485.788.14 0 .258-.603.258-1.31 0-.307.054-.745.119-.974.104-.363.079-.474-.197-.872-.326-.471-.456-.545-.586-.334-.158.256-1.048.607-1.716.677-.957.1-1.96-.13-3.074-.706-.516-.267-.958-.464-.984-.439-.025.025-.459.849-.964 1.83-.84 1.633-1.518 2.74-2.666 4.352-.541.76-.479.813 1.251 1.078 3.383.518 4.125.592 4.737.474zm12.66-.869c.05-.05.104-.303.12-.563.029-.463.014-.481-.693-.863-.397-.214-.799-.391-.893-.393-.094-.002-.446.291-.783.65-.465.496-.725.674-1.083.74-.65.119-.846-.038-.89-.713-.041-.624-.104-.653-.891-.418-.624.187-.961.621-.915 1.176.032.383.08.437.457.511.535.105 5.448-.007 5.57-.127zm-7.543-3.325c.48-1.049.531-3.434.074-3.434-.141 0-.593 3.473-.522 4.004.03.219.167.044.448-.569zm1.466-.243c.079-.068-.368-3.14-.473-3.25-.23-.241-.341.255-.343 1.526-.002 1.535.115 1.959.51 1.837l.306-.114zm1.255-.522c.083-.08-.302-1.283-.708-2.218-.229-.526-.449-.601-.357-.12.035.182.096.683.136 1.114.13 1.397.16 1.476.524 1.386.176-.043.358-.116.405-.162zm1.679-1.111c1.443-.532 3.054-.756 4.172-.579l.879.139.43-.409c.669-.637 1.01-1.747.613-1.992-.082-.051-1.152-.131-2.376-.177-1.717-.066-2.324-.049-2.65.073-1.305.488-2.323.898-2.385.96-.114.114-.18 1.467-.094 1.927.046.244.151.426.247.426.092 0 .616-.166 1.166-.368zm-7.063-1.426c1.199-.556 1.875-2.012 1.633-3.515-.066-.409-.151-.774-.189-.812-1.122.583-2.329 1.363-5.095 1.654-.064.04-.286.424-.493.853l-.377.78.274.21c.151.115.707.399 1.237.631 1.15.503 2.206.574 3.01.2zm2.034-.082c.118-.307.085-1.035-.043-.956-.147.091-.377.91-.294 1.045.099.161.257.119.337-.089zm3.194-.863c-.032-.821-.077-.931-.302-.744-.197.164-.221.683-.052 1.127.208.547.384.357.355-.384zm-.899-4.877l-.005-4.606-.708.025c-.833.03-1.092.212-.925.65.062.163.178.7.257 1.195.125.774.117 1.009-.057 1.682-.111.43-.308.955-.438 1.167-.257.418-.287.912-.182 2.988l.069 1.288c.008.077.526.142 1.574.196l.421.022zm-8.74 3.184c-.703.011-1.59.004-2.106-.051.069.183 1.359 1.258 1.486 1.225.196-.321.403-.732.62-1.174zm10.857.577c.262-.134.862-.581 1.333-.993 1.199-1.05 1.298-1.11 1.847-1.124.269-.006 1.536-.055 2.816-.108 2.312-.096 2.329-.098 2.438-.387.061-.16.111-.53.111-.822 0-.667-.458-3.519-.611-3.805-.063-.117-.316-.249-.564-.294-.587-.106-.668-.16-.517-.343.091-.11.062-.21-.106-.361-.306-.277-.973-.423-1.952-.426-.844-.003-.916.037-1.699.954-.116.136-.344.247-.508.247-.163 0-.488.091-.721.202-.505.241-.65.153-.392-.24.112-.172.409-.348.739-.441.303-.085.551-.196.551-.247 0-.123-2.227-.265-3.372-.216l-.903.039-.036.749c-.033.695-.016.754.241.818.152.038.683.019 1.18-.042 1.078-.134 1.302-.02.805.41-.3.26-.412.284-.99.216-.781-.092-1.261.143-1.261.618 0 .342.1.374 1.467.471.944.067 1.904.36 1.904.58 0 .074-.155.091-.389.045-.837-.167-2.641-.323-2.876-.249-.239.076-.246.149-.207 1.988.025 1.171.092 1.96.172 2.041.096.095.289-.017.703-.408.58-.548 1.213-.869 1.332-.676.036.058-.078.204-.254.324-.176.12-.569.444-.873.72-.549.497-.552.504-.327.753.28.309.325.31.917.008zm6.345-5.425c.322-.021.442-.344.569-.65.277-.168.181-.353-.034-.244-.127.211-.284.333-.398.484-.1.106-.44.052-.796.119-.868.165-.764.176-.956.321 0 0-.138.146-.421.245-.285.1-.388.091-.471-.04-.155-.244-.065-.756.061-1.123.269-.543 1.388-.761 2.158-.67.098-.162.176-.375.199-.444.071-.212-.822-.173-1.512-.14-.693.104-.91.327-1.216.782-.208.31-.511.525-.61.525-.133 0-.157.071-.092.271.049.149.096.433.104.632.009.199-.017.391.082.436.228.103 1.605.109 1.605.109.679-.105.3.529-1.431.577-1.263-.055-.235.106.309.122.485.015.949-.082 1.685-.351.559-.204 1.294-.379 1.252-.445-.556-.021-.911-.01-1.363.043-.106-.179-.336-.248-.357-.235.305-.255 1.084-.247 1.634-.326zm-2.887 5.277c-.032-.097-.298-.151-.753-.151s-.72.053-.753.151c-.037.11.164.151.753.151s.789-.04.753-.151zm2.85.077c.419-.161.137-.263-.942-.344-1.122-.084-1.739.035-1.573.303.077.125 2.206.16 2.515.041zm-15.267-5.228c.343-.946.351-1.081.063-1.081-.122 0-.284-.138-.361-.307-.23-.505-.183-.574.342-.49.265.042.482.054.482.025 0-.21-.238-.494-.919-1.095-.561-.496-.821-.656-.914-.563-.093.093-.024.293.243.704.205.316.349.598.319.628-.03.03-.285-.109-.566-.31-.609-.433-1.761-.881-2.268-.881-.435 0-1.012.275-1.465.699l-.331.31v-.356c0-.22.141-.528.37-.805.257-.312.315-.449.191-.449-.235 0-1.389 1.273-2.169 2.394-.34.489-.693.989-.783 1.112-.239.325-.107.666.672 1.742.816 1.09 1.495 1.888 2.368 2.674l1.665.146h1.435c.718-1.42 1.107-2.661 1.626-4.097zm-4.717 1.906c-.567-.224-1.599-1.834-1.454-2.21.035-.09.282-.275.55-.412.313-.16.545-.388.65-.639.09-.215.37-.572.622-.793.437-.384.521-.481 1.268-.433.853.054.739.069 1.519 1.261.238.364.572.811.74.992.283.305.294.354.136.648-.272.508-1.224 1.536-1.635 1.597-.854.127-2.168.08-2.396-.01zm3.188-.928c.3-.611.22-.892-.473-.313-.277.232-.614.421-.614.421-.276.301.391.2.391.2.385 0 .493-.025.696-.309zm-1.154-.492c.616-.259.921-.706.921-1.175 0-.551-.287-1.196-.561-1.274-.768-.218-1.199-.202-1.719.066-.294.151-.559.428-.622.533-.194.322-.007.94.456 1.48.282.501 1.055.461 1.525.37zm-.993-.889c-.19-.229-.042-.545.296-.63.324-.081.92.086.983.277.136.409-.978.716-1.28.353zm18.755 4.299c1.299-.127.529-.33-1.271-.336-1.588-.005-1.985.09-1.779.422.09.145.924.121 3.05-.087zm-14.094-.292c1.239-.327 2.552-1.053 2.552-1.412 0-.275-1.944-3.045-2.228-3.174-.166-.076-.319-.115-.34-.088-.409 1.701-1.26 3.805-1.794 5.025 0 .136.601-.032 1.81-.351zm-6.707.172l-.529-.6c-.195-.227-.766-.896-1.22-1.536-.454-.64-.883-1.144-.953-1.121-.07.024-.313.379-.538.79-.109.266-.406.813-.406.813.792.787 2.927 1.63 3.646 1.654zm-3.578-3.109l.572-.902-.314-.785c-.173-.432-.374-1.082-.447-1.446-.073-.364-.175-.661-.226-.661-.332 0-1.315 1.716-1.317 2.299-.003.67.769 2.359 1.092 2.39.038.004.326-.399.641-.896zm13.585.631c.029-.149.048-.649.043-1.111-.008-.797-.026-.849-.346-1.003-.362-.175-1.65-.348-1.65-.222 0 .068.424.676 1.063 1.523.125.166.317.477.428.692.236.458.389.498.462.12zm.67-1.866c-.025-.414-.11-.817-.19-.897-.113-.113-.144.107-.141.993.004 1.05.018 1.119.19.897.136-.176.174-.444.141-.993zm-22.968-.163c-.593-.497-.758-.428-.206.086.254.236.497.392.542.346.044-.045-.107-.24-.336-.432zm10.395-1.044c.297-.446.797-1.108 1.11-1.473l.569-.662-.41-.032c-.225-.017-.925.01-1.554.06-1.078.087-1.146.108-1.184.375-.041.288.395 2.07.601 2.46.152.288.237.216.868-.728zm11.876.154c.192-.232.066-.932-.212-1.173-.141-.122-.608-.206-1.437-.258l-1.229-.076-.081.433c-.152.808.537 1.197 2.193 1.238.415.01.666-.044.766-.164zm-3.551-1.507c-.041-.066-.125-.12-.188-.12-.062 0-.113.054-.113.12s.084.12.188.12c.103 0 .154-.054.113-.12zm1.574-1.329c-.56-.28-.791-.299-.791-.065 0 .22.187.291.783.297l.482.005zm-1.393-.167c0-.251-.31-.521-.691-.6-.6-.126-2.011-.307-2.379-.305-.344.001-.35.01-.128.178.129.097.372.179.542.182.169.003.511.084.76.181l.903.351c.586.227.993.233.993.014zm-8.332-.672c.749-.264 1.575-.481 1.836-.481.511 0 .649-.199.204-.294-1.897-.404-2.4-.335-3.131.432-.413.434-.585.827-.361.824.05 0 .703-.217 1.451-.482zm2.733.001c.042-.069-.061-.12-.241-.12s-.283.052-.241.12c.041.066.149.12.241.12s.2-.054.241-.12zm5.238-.712c0-.362-.673-.854-1.168-.854-.448 0-1.842.559-1.842.739 0 .057.284.107.632.111.348.004.849.052 1.114.107.889.184 1.264.153 1.264-.103zm-15.265 5.255c-1.271-1.276-2.063-1.792-2.366-1.54-.104.087-.19.221-.19.299 0 .29 1.023 1.192 1.733 1.528.404.191.6.316.434.277-.634-.15-1.294-.562-2.077-1.298-.447-.42-.813-.847-.813-.948 0-.102.139-.219.308-.262.86-.216 2.821.673 3.838 1.739.368.386.67.777.67.868 0 .165-.228.454-.358.454-.038 0-.569-.502-1.181-1.117z" fill="#fff"/><path d="M21.494 42.166c1.019-1.469 4.419-3.801 7.393-3.832 1.979-.314 3.975.464 4.777 1.237 1.067 1.36.222 2.854 2.049 3.498 1.442.317 3.285-.148 6.375-1.232 2.112-.572 3.978-1.475 6.471-1.728 1.963-.083 3.054-.127 5.307.867-.385 1.437-.806 2.814-1.047 4.492-3.337-1.897-7.016-1.001-10.324-.022-2.054.604-5.918 1.644-7.5 1.007-1.331-.648-.363-2.652-1.93-3.576-.896-.523-1.991-.94-4.295-.71-3.473.705-4.89 1.758-6.47 3.602-.33-1.236-.609-2.408-.807-3.606z" fill="#015aad" stroke="#015aad" stroke-width=".121"/><path d="M22.387 46.246c.859-1.435 3.421-3.468 6.497-3.698 2.262-.363 4.498.713 4.777 1.562.249.816.017 2.204 1.401 2.754 1.442.317 4.334.1 7.425-.984 5.949-1.98 8.624-.902 10.27-.021-.233 1.57-.081 4.074-.131 5.733-1.083-2.671-6.477-2.394-9.92-1.36-2.26.769-6.741 1.006-7.845.289-1.629-1.154-.088-1.858-1.514-3.09-1.133-.809-2.305-1.207-4.578-.857-3.611.801-4.363 2.279-4.943 3.602 0 0-1.101-2.727-1.437-3.931z" fill="#ee1c19" stroke="#ee1c19" stroke-width=".12"/><path d="M34.763 56.508v15.743h2.26v-6.819h1.666c1.485 0 2.626-.159 3.421-.474.795-.323 1.422-.837 1.879-1.542.458-.705.687-1.514.687-2.429 0-1.365-.447-2.452-1.34-3.263-.893-.81-2.091-1.216-3.591-1.216zm-29.45.022v15.721h2.251v-12.232l4.883 6.077h.418l4.837-6.077v12.232h2.262v-15.721h-2.092l-5.209 6.46-5.233-6.46zm18.05 0v15.697h9.126v-2.003h-6.877v-4.883h6.438v-2.014h-6.438v-4.794h6.662v-2.003zm22.944 0v15.721h2.047v-7.417c.48-.54.92-.927 1.318-1.159.398-.233.82-.348 1.27-.348.608 0 1.096.233 1.464.698.375.458.561 1.065.561 1.823v6.403h2.049v-5.896c0-1.2-.134-2.105-.405-2.712-.263-.608-.668-1.084-1.216-1.429-.548-.345-1.167-.518-1.857-.518-1.268 0-2.329.521-3.184 1.564v-6.73zm11.871 0v15.721h2.251v-15.721zm-21.156 1.981h2.329c1.995 0 2.995.806 2.995 2.419 0 .803-.249 1.422-.744 1.857-.495.428-1.201.642-2.116.642h-2.464z" fill="#fff"/></svg>