<svg width="36" height="28" viewBox="0 0 36 28" fill="none" xmlns="http://www.w3.org/2000/svg">
<path d="M335 11.0448H29.375C29.1435 11.0458 28.9144 11.0927 28.7012 11.1828C28.4879 11.2729 28.2946 11.4045 28.1325 11.5698L25.9625 13.8273L21.0625 8.24482C20.8988 8.06997 20.701 7.93059 20.4812 7.8353C20.2615 7.74001 20.0245 7.69085 19.785 7.69085C19.5455 7.69085 19.3085 7.74001 19.0888 7.8353C18.8691 7.93059 18.6712 8.06997 18.5075 8.24482L15.5325 11.2198H12.75C12.2859 11.2198 11.8408 11.4042 11.5126 11.7324C11.1844 12.0606 11 12.5057 11 12.9698C11 13.4339 11.1844 13.8791 11.5126 14.2073C11.8408 14.5354 12.2859 14.7198 12.75 14.7198H16.25C16.4803 14.7211 16.7086 14.677 16.9219 14.5899C17.1351 14.5028 17.329 14.3745 17.4925 14.2123L19.75 11.8673L24.65 17.4498C24.8081 17.63 25.0015 17.7758 25.2182 17.8781C25.435 17.9805 25.6704 18.0372 25.91 18.0448C26.1403 18.0461 26.3686 18.002 26.5819 17.9149C26.7951 17.8278 26.989 17.6995 27.1525 17.5373L30.1275 14.5448H33.75C34.2141 14.5448 34.6593 14.3604 34.9875 14.0323C35.3156 13.7041 35.5 13.2589 35.5 12.7948C35.5 12.3307 35.3156 11.8856 34.9875 11.5574C34.6593 11.2292 34.2141 11.0448 33.75 11.0448ZM20.8175 20.3198L17.4925 23.6448C17.3298 23.8088 17.1363 23.939 16.923 24.0279C16.7098 24.1167 16.481 24.1625 16.25 24.1625C16.019 24.1625 15.7903 24.1167 15.577 24.0279C15.3638 23.939 15.1702 23.8088 15.0075 23.6448L5.89002 14.5273C5.28998 13.9276 4.81398 13.2156 4.48922 12.4319C4.16446 11.6482 3.9973 10.8081 3.9973 9.95982C3.9973 9.11148 4.16446 8.27146 4.48922 7.48775C4.81398 6.70404 5.28998 5.992 5.89002 5.39231C7.10043 4.18581 8.73975 3.50834 10.4488 3.50834C12.1578 3.50834 13.7971 4.18581 15.0075 5.39231C15.1702 5.55634 15.3638 5.68653 15.577 5.77537C15.7903 5.86422 16.019 5.90996 16.25 5.90996C16.481 5.90996 16.7098 5.86422 16.923 5.77537C17.1363 5.68653 17.3298 5.55634 17.4925 5.39231C18.7222 4.22283 20.3543 3.57065 22.0513 3.57065C23.7483 3.57065 25.3804 4.22283 26.61 5.39231C27 5.78736 27.3408 6.22805 27.625 6.70481C27.8798 7.05519 28.2555 7.29859 28.6795 7.38792C29.1034 7.47725 29.5454 7.40617 29.9199 7.18842C30.2944 6.97067 30.5749 6.62173 30.707 6.20913C30.8391 5.79653 30.8134 5.3496 30.635 4.95481C30.2025 4.23652 29.6855 3.57263 29.095 2.97732C27.4343 1.29705 25.2293 0.263246 22.8755 0.0612129C20.5217 -0.14082 18.1728 0.502133 16.25 1.87481C14.764 0.804329 13.0112 0.165198 11.1849 0.0279536C9.35861 -0.109291 7.52992 0.260688 5.90062 1.09706C4.27133 1.93343 2.90477 3.20368 1.95177 4.76762C0.998767 6.33156 0.49637 8.12839 0.50002 9.95982C0.499495 11.262 0.757561 12.5513 1.25924 13.7529C1.76093 14.9545 2.49624 16.0446 3.42252 16.9598L12.54 26.0773C13.5244 27.0605 14.8588 27.6127 16.25 27.6127C17.6413 27.6127 18.9756 27.0605 19.96 26.0773L23.25 22.7873C23.576 22.4594 23.7589 22.0159 23.7589 21.5536C23.7589 21.0912 23.576 20.6477 23.25 20.3198C22.9237 20.0044 22.4876 19.8281 22.0338 19.8281C21.5799 19.8281 21.1438 20.0044 20.8175 20.3198Z" fill="#0067B1"/>
</svg>
