<svg width="90" height="50" viewBox="0 0 1479 645" fill="none" xmlns="http://www.w3.org/2000/svg">
<path d="M591.966 423.298H556.552V209.534H593.504V365.573L701.61 209.534H736.721V423.298H699.768V267.554L591.966 423.298Z" fill="#0067B1"/>
<path d="M847.214 208.025H882.021L976.062 423.298H936.389L914.692 371.704H813.619L791.641 423.298H753.151L847.214 208.025ZM900.952 338.412L864 252.92L827.351 338.412H900.952Z" fill="#0067B1"/>
<path d="M1061 423.298H1023.14V244.342H955.347V209.534H1128.8V244.342H1061L1061 423.298Z" fill="#0067B1"/>
<path d="M1141.44 390.331L1165.56 365.581C1184.19 382.692 1201.3 393.378 1228.17 393.378C1264.49 393.378 1291.96 367.111 1297.78 331.675H1201.9V299.611H1297.46C1291.05 265.106 1263.56 239.772 1228.17 239.772C1203.42 239.772 1184.49 249.829 1167.4 265.106L1146 239.468C1166.17 220.515 1189.38 205.873 1227.86 205.873C1292.29 205.873 1337.78 255.952 1337.78 316.419C1337.78 378.396 1291.66 426.943 1229.37 426.943C1189.07 426.943 1163.41 413.529 1141.43 390.316L1141.44 390.331Z" fill="#0067B1"/>
<path d="M268.542 247.277C268.542 268.116 251.66 284.999 230.821 284.999C210.005 284.999 193.1 268.116 193.1 247.277C193.1 226.461 210.005 209.534 230.821 209.534C251.66 209.534 268.542 226.461 268.542 247.277ZM158.95 173.61C163.631 165.483 168.401 157.57 173.267 149.857C168.142 149.414 163.114 149.206 158.226 149.206C125.37 149.206 101.507 159.404 92.8476 177.218C89.2832 184.502 88.3293 192.792 89.6604 201.688C110.1 191.446 133.431 181.944 158.95 173.61ZM187.82 151.632C184.374 156.919 180.995 162.318 177.645 167.834C187.887 164.832 198.387 162.037 209.191 159.478C217.806 161.711 226.562 164.462 235.288 167.671C229.12 168.929 222.946 170.252 216.704 171.68C167.647 183.038 125.903 198.382 93.1655 215.006C97.8909 227.718 106.55 241.199 118.382 254.45C126.162 236.311 135.006 217.735 144.922 198.989L146.875 195.358C152.768 193.31 158.817 191.35 165.036 189.442C162.152 194.589 159.261 199.802 156.466 205.112C131.597 252.165 114.278 296.379 103.681 335.01C111.061 335.476 118.818 335.735 126.894 335.735C148.102 335.735 170.901 334.012 194.364 330.847C202.188 334.574 210.079 337.968 217.947 340.978C186.186 346.472 155.223 349.356 126.886 349.356C54.1058 349.356 8.21317 331.357 0.929211 299.995C-5.65963 271.429 23.21 238.433 74.2273 209.867C75.0629 214.222 76.32 218.667 77.9765 223.163C32.949 248.889 9.52206 276.62 14.203 296.927C18.6252 315.976 46.8662 329.287 90.4516 333.901C96.0126 313.247 103.348 291.366 112.451 268.708C80.4611 235.135 67.0986 198.907 80.5795 171.243C91.7753 148.26 119.343 135.6 158.204 135.6C184.374 135.6 213.754 141.464 243.23 152.32C277.313 146.078 310.656 142.773 340.968 142.773C350.33 142.773 359.219 143.054 367.649 143.631C383.88 76.5074 378.379 28.6625 355.329 16.4388C351.114 14.2056 346.226 13.0889 340.872 13.0889C304.201 13.0889 248.251 62.8417 197.958 136.325C193.07 135.371 188.249 134.602 183.501 133.995C237.684 52.6885 298.004 0 340.872 0H341.219C348.622 0.0443693 355.425 1.67864 361.452 4.86583C391.978 21.0015 397.472 74.6439 380.826 144.821C430.35 150.36 461.083 166.939 466.903 192.134C472.634 216.766 452.749 245.125 410.931 272.021C404.645 276.051 397.982 279.985 390.957 283.801C393.841 297.282 392.658 309.853 387.282 320.893C376.057 343.847 348.496 356.537 309.636 356.537C303.838 356.537 297.878 356.137 291.777 355.583C294.528 351.301 297.249 346.968 299.971 342.568C303.232 342.73 306.493 342.915 309.636 342.915C342.536 342.915 366.355 332.696 375.036 314.881C383.629 297.37 377.691 273.625 358.39 248.106C355.639 244.475 352.637 240.844 349.45 237.257C341.604 255.811 332.73 274.653 322.976 293.133L318.879 300.75C337.899 293.976 355.713 286.5 371.871 278.447C373.661 282.987 374.947 287.454 375.665 291.721C340.835 308.81 299.039 323.341 254.219 333.701L251.704 334.285C261.34 336.94 270.842 339.033 280.108 340.453C282.578 336.607 285.04 332.703 287.488 328.762C293.914 326.831 300.244 324.827 306.486 322.705C247.23 423.823 175.774 492.114 126.975 492.114C119.454 492.114 112.54 490.488 106.395 487.271C76.8229 471.601 70.7221 420.724 85.5562 353.697C89.8157 354.096 94.2156 354.392 98.7339 354.629C84.2991 418.543 90.1632 463.829 112.518 475.676C116.733 477.909 121.599 479.055 126.975 479.055C164.134 479.055 221.134 427.927 271.937 352.839C246.794 348.254 220.269 339.499 194.475 326.928C167.536 313.772 144.116 298.058 125.348 281.22C127.138 276.679 129.075 272.072 131.005 267.458C149.515 284.895 173.237 301.408 200.458 314.674C208.888 318.793 217.407 322.476 225.904 325.737C234.282 324.155 242.712 322.387 251.142 320.427C268.091 316.493 284.597 311.997 300.407 306.969C304.156 300.424 307.809 293.791 311.374 287.017C322.037 266.881 331.443 246.597 339.57 226.993C320.314 208.299 295.475 191.187 267.396 177.447C240.738 164.433 213.332 155.61 187.79 151.647L187.82 151.632ZM386.935 270.468C392.754 267.229 398.345 263.923 403.603 260.529C439.69 237.339 457.918 213.542 453.659 195.173C448.142 171.236 404.971 156.387 340.99 156.387C317.844 156.387 292.798 158.369 266.997 162.162L273.379 165.209C300.829 178.594 325.394 195.173 345.065 213.401C352.4 194.589 358.501 176.634 363.227 160.203C367.767 160.602 372.167 161.016 376.426 161.578C370.954 180.79 363.811 201.762 355.166 223.348C360.335 228.798 365.038 234.314 369.276 239.905C377.144 250.309 383.037 260.559 386.927 270.475L386.935 270.468Z" fill="#0067B1"/>
<path d="M1052.49 609.375L1089 563.416V640.737H1105.77V532.025H1096.13L1052.5 587.183L1008.85 532.025H999.095V640.737H1015.88V563.416L1052.49 609.375Z" fill="#0067B1"/>
<path d="M1208.4 532.032H1198.59L1141.16 608.776V532.032H1124.35V640.744H1134.15L1191.62 564.052V640.744H1208.41L1208.4 532.032Z" fill="#0067B1"/>
<path d="M1479 640.737V532.025H1469.19L1411.78 608.769V532.025H1394.97V640.737H1404.77L1462.24 564.044V640.737H1479Z" fill="#0067B1"/>
<path d="M1340.04 535.892C1327.19 535.892 1315.97 542.599 1310.08 552.072V532.025H1293.29V580.779C1293.29 597.565 1280.91 609.693 1265.05 609.693C1249.18 609.693 1236.77 597.565 1236.77 580.779C1236.77 564.037 1249.18 551.769 1265.05 551.769C1273.41 551.769 1280.74 555.237 1285.89 560.916V543.945C1279.86 538.983 1272.01 535.892 1263.33 535.892C1237.37 535.892 1219.84 555.799 1219.84 580.779C1219.84 605.789 1237.37 625.503 1263.33 625.503C1276.23 625.503 1287.41 618.981 1293.29 609.53V640.729L1310.32 640.796V578.605C1311.39 562.98 1323.35 551.762 1338.51 551.762C1354.35 551.762 1366.78 564.03 1366.78 580.772C1366.78 597.558 1354.35 609.686 1338.51 609.686C1330.25 609.686 1323.01 606.336 1317.84 600.79V618.02C1323.77 622.656 1331.48 625.496 1340.05 625.496C1365.85 625.496 1383.41 605.774 1383.41 580.772C1383.41 555.792 1365.85 535.885 1340.05 535.885L1340.04 535.892Z" fill="#0067B1"/>
<path d="M747.747 532.032H737.971L680.505 608.776V532.032H663.741V640.766H673.517L730.983 564.074V640.766H747.747V532.032Z" fill="#0067B1"/>
<path d="M572.871 587.212H628.148V640.766H644.934V532.032H628.148V570.448H572.871V532.032H556.107V640.766H572.871V587.212Z" fill="#0067B1"/>
<path d="M923.84 576.105C919.972 583.833 910.011 582.021 908.266 581.903C899.444 581.393 891.761 574.124 887.568 563.231C887.198 562.299 886.873 561.367 878.561 532.032H860.843C869.154 561.412 870.922 567.076 871.247 568.052C878.258 588.544 894.926 600.789 917.717 595.546L911.852 614.13C907.918 625.629 894.393 629.541 879.559 625.444L874.671 641.624C898.002 648.701 921.052 640.855 928.41 614.781L954.462 532.032H937.675L923.84 576.105Z" fill="#0067B1"/>
<path d="M831.774 532.032H803.459V532.076C778.753 532.261 762.063 551.288 762.063 575.151C762.063 589.934 768.511 602.764 779.248 610.469C781.859 612.333 784.743 613.871 787.819 615.076C787.124 617.872 786.14 620.711 784.654 623.551C784.284 624.298 783.744 625.207 773.85 640.759H793.986C797.639 634.961 798.786 633.053 799.089 632.543C801.788 627.818 803.652 622.952 804.679 618.086H831.782V640.766H848.568V532.032H831.774ZM778.317 575.151C778.317 559.06 790.282 547.258 805.485 547.258H831.774V602.882H805.256C790.171 602.742 778.317 591.191 778.317 575.151Z" fill="#0067B1"/>
</svg>
