<svg width="132" height="58" viewBox="0 0 132 58" fill="none" xmlns="http://www.w3.org/2000/svg">
<path d="M52.8328 37.78H49.6721V18.7017H52.9701V32.6281L62.6185 18.7017H65.7521V37.78H62.4542V23.8799L52.8328 37.78Z" fill="#004374"/>
<path d="M75.6136 18.5669H78.7202L87.1133 37.7799H83.5724L81.636 33.1751H72.6153L70.6538 37.7799H67.2185L75.6136 18.5669ZM80.4097 30.2039L77.1118 22.5737L73.8409 30.2039H80.4097Z" fill="#004374"/>
<path d="M94.6937 37.78H91.3152V21.8082H85.2644V18.7017H100.745V21.8082H94.6943L94.6937 37.78Z" fill="#004374"/>
<path d="M101.873 34.8378L104.026 32.6288C105.689 34.156 107.216 35.1097 109.614 35.1097C112.855 35.1097 115.307 32.7654 115.827 29.6028H107.269V26.741H115.798C115.226 23.6615 112.772 21.4004 109.614 21.4004C107.405 21.4004 105.715 22.298 104.19 23.6615L102.28 21.3733C104.08 19.6818 106.152 18.375 109.587 18.375C115.336 18.375 119.397 22.8445 119.397 28.2412C119.397 33.7726 115.28 38.1054 109.721 38.1054C106.124 38.1054 103.834 36.9082 101.873 34.8365L101.873 34.8378Z" fill="#004374"/>
<path d="M23.9673 22.0702C23.9673 23.93 22.4606 25.4368 20.6007 25.4368C18.7429 25.4368 17.2341 23.93 17.2341 22.0702C17.2341 20.2123 18.7429 18.7016 20.6007 18.7016C22.4606 18.7016 23.9673 20.2123 23.9673 22.0702ZM14.1863 15.4953C14.6041 14.77 15.0297 14.0638 15.464 13.3754C15.0066 13.3358 14.5579 13.3174 14.1216 13.3174C11.1893 13.3174 9.05947 14.2275 8.28662 15.8174C7.9685 16.4675 7.88336 17.2074 8.00216 18.0013C9.82638 17.0872 11.9086 16.2391 14.1863 15.4953ZM16.7629 13.5338C16.4553 14.0057 16.1537 14.4875 15.8547 14.9799C16.7688 14.7119 17.706 14.4625 18.6703 14.2341C19.4391 14.4334 20.2206 14.6789 20.9994 14.9654C20.4489 15.0776 19.8978 15.1957 19.3408 15.3231C14.9624 16.3368 11.2368 17.7063 8.315 19.19C8.73673 20.3245 9.50958 21.5277 10.5656 22.7104C11.2599 21.0914 12.0492 19.4335 12.9343 17.7604L13.1085 17.4364C13.6345 17.2536 14.1744 17.0787 14.7295 16.9084C14.4721 17.3677 14.214 17.833 13.9645 18.3069C11.745 22.5064 10.1993 26.4525 9.25351 29.9003C9.91218 29.9419 10.6045 29.965 11.3252 29.965C13.2181 29.965 15.2528 29.8112 17.347 29.5287C18.0452 29.8614 18.7495 30.1643 19.4517 30.4329C16.617 30.9233 13.8536 31.1807 11.3246 31.1807C4.82893 31.1807 0.733023 29.5743 0.0829318 26.7752C-0.50512 24.2257 2.07148 21.2808 6.62476 18.7313C6.69934 19.12 6.81154 19.5167 6.95938 19.9179C2.94069 22.214 0.849841 24.689 1.26762 26.5013C1.66229 28.2015 4.1828 29.3895 8.07278 29.8013C8.56909 27.9579 9.22381 26.005 10.0363 23.9828C7.18113 20.9865 5.98853 17.7532 7.19169 15.2841C8.19092 13.2329 10.6514 12.103 14.1196 12.103C16.4553 12.103 19.0775 12.6264 21.7082 13.5952C24.7501 13.0382 27.726 12.7432 30.4313 12.7432C31.2668 12.7432 32.0602 12.7683 32.8125 12.8197C34.2612 6.829 33.7702 2.55886 31.713 1.46789C31.3368 1.26857 30.9005 1.16892 30.4227 1.16892C27.1498 1.16892 22.1563 5.60933 17.6677 12.1677C17.2315 12.0825 16.8012 12.0139 16.3774 11.9598C21.2132 4.70317 26.5967 0.000732422 30.4227 0.000732422H30.4537C31.1144 0.00469237 31.7216 0.15055 32.2595 0.435006C34.9839 1.87511 35.4743 6.66268 33.9886 12.926C38.4086 13.4203 41.1515 14.9 41.6709 17.1486C42.1824 19.347 40.4077 21.8781 36.6755 24.2785C36.1145 24.6382 35.5198 24.9893 34.8928 25.3299C35.1502 26.533 35.0446 27.655 34.5648 28.6404C33.5629 30.689 31.1032 31.8215 27.6349 31.8215C27.1175 31.8215 26.5855 31.7859 26.041 31.7364C26.2865 31.3543 26.5294 30.9675 26.7723 30.5748C27.0634 30.5893 27.3544 30.6058 27.6349 30.6058C30.5712 30.6058 32.697 29.6937 33.4719 28.1038C34.2388 26.5409 33.7088 24.4217 31.9862 22.1441C31.7407 21.82 31.4728 21.496 31.1883 21.1759C30.4881 22.8318 29.6961 24.5135 28.8255 26.1628L28.4599 26.8426C30.1574 26.238 31.7473 25.5708 33.1894 24.852C33.3491 25.2573 33.464 25.6559 33.528 26.0367C30.4194 27.562 26.6891 28.8588 22.6889 29.7835L22.4645 29.8356C23.3245 30.0726 24.1726 30.2593 24.9996 30.3861C25.22 30.0429 25.4398 29.6944 25.6582 29.3426C26.2318 29.1704 26.7967 28.9915 27.3538 28.8021C22.0652 37.8268 15.6878 43.9218 11.3325 43.9218C10.6613 43.9218 10.0442 43.7766 9.49572 43.4895C6.85642 42.091 6.31193 37.5503 7.63587 31.5681C8.01602 31.6037 8.40872 31.6301 8.81197 31.6513C7.52367 37.3556 8.04704 41.3973 10.0422 42.4546C10.4184 42.654 10.8527 42.7563 11.3325 42.7563C14.6489 42.7563 19.7361 38.1931 24.2703 31.4915C22.0263 31.0823 19.6589 30.3009 17.3569 29.1789C14.9525 28.0048 12.8623 26.6023 11.1873 25.0995C11.347 24.6943 11.5199 24.2831 11.6922 23.8713C13.3441 25.4275 15.4614 26.9013 17.8908 28.0853C18.6432 28.4529 19.4035 28.7816 20.1618 29.0727C20.9096 28.9314 21.662 28.7737 22.4144 28.5988C23.9271 28.2477 25.4002 27.8464 26.8112 27.3976C27.1459 26.8135 27.4719 26.2215 27.79 25.617C28.7417 23.8198 29.5812 22.0094 30.3066 20.2598C28.5879 18.5914 26.371 17.0641 23.865 15.8379C21.4858 14.6763 19.0399 13.8889 16.7602 13.5352L16.7629 13.5338ZM34.5338 24.1399C35.0532 23.8508 35.5522 23.5558 36.0214 23.2529C39.2422 21.1831 40.8691 19.0593 40.4889 17.4199C39.9965 15.2835 36.1435 13.9582 30.4333 13.9582C28.3675 13.9582 26.1321 14.1351 23.8294 14.4737L24.399 14.7456C26.8489 15.9402 29.0414 17.4199 30.7969 19.0467C31.4516 17.3677 31.9961 15.7653 32.4179 14.2988C32.8231 14.3344 33.2158 14.3714 33.596 14.4215C33.1076 16.1362 32.47 18.0079 31.6985 19.9344C32.1598 20.4209 32.5796 20.9132 32.9577 21.4122C33.66 22.3408 34.186 23.2555 34.5331 24.1406L34.5338 24.1399Z" fill="#004374"/>
<path d="M93.9347 54.3874L97.1931 50.2855V57.1864H98.6893V47.4839H97.8293L93.9354 52.4068L90.0395 47.4839H89.1689V57.1864H90.6671V50.2855L93.9347 54.3874Z" fill="#004374"/>
<path d="M107.849 47.4844H106.974L101.848 54.3338V47.4844H100.348V57.1869H101.223L106.352 50.3421V57.1869H107.85L107.849 47.4844Z" fill="#004374"/>
<path d="M132 57.1864V47.4839H131.125L126.001 54.3333V47.4839H124.5V57.1864H125.376L130.504 50.3416V57.1864H132Z" fill="#004374"/>
<path d="M119.599 47.8291C118.451 47.8291 117.45 48.4277 116.924 49.2731V47.4839H115.426V51.8352C115.426 53.3334 114.321 54.4158 112.906 54.4158C111.489 54.4158 110.381 53.3334 110.381 51.8352C110.381 50.341 111.489 49.2461 112.906 49.2461C113.651 49.2461 114.306 49.5556 114.765 50.0625V48.5478C114.228 48.1049 113.527 47.8291 112.752 47.8291C110.435 47.8291 108.87 49.6058 108.87 51.8352C108.87 54.0673 110.435 55.8268 112.752 55.8268C113.903 55.8268 114.901 55.2447 115.426 54.4013V57.1858L116.945 57.1917V51.6412C117.041 50.2466 118.109 49.2454 119.462 49.2454C120.875 49.2454 121.984 50.3403 121.984 51.8345C121.984 53.3327 120.875 54.4151 119.462 54.4151C118.724 54.4151 118.078 54.1161 117.617 53.6211V55.1589C118.147 55.5727 118.834 55.8262 119.599 55.8262C121.902 55.8262 123.469 54.066 123.469 51.8345C123.469 49.6051 121.902 47.8284 119.599 47.8284L119.599 47.8291Z" fill="#004374"/>
<path d="M66.7363 47.4844H65.8638L60.735 54.3338V47.4844H59.2388V57.1889H60.1113L65.2401 50.3441V57.1889H66.7363V47.4844Z" fill="#004374"/>
<path d="M51.1285 52.4092H56.062V57.1889H57.5601V47.4844H56.062V50.913H51.1285V47.4844H49.6323V57.1889H51.1285V52.4092Z" fill="#004374"/>
<path d="M82.4523 51.4179C82.1071 52.1076 81.2181 51.9459 81.0624 51.9354C80.275 51.8898 79.5893 51.241 79.215 50.2689C79.182 50.1857 79.153 50.1026 78.4112 47.4844H76.8298C77.5717 50.1065 77.7294 50.6121 77.7584 50.6992C78.3841 52.528 79.8717 53.621 81.9058 53.153L81.3825 54.8116C81.0313 55.8379 79.8242 56.187 78.5003 55.8214L78.064 57.2654C80.1463 57.8971 82.2035 57.1968 82.8602 54.8697L85.1853 47.4844H83.6871L82.4523 51.4179Z" fill="#004374"/>
<path d="M74.2356 47.4844H71.7085V47.4883C69.5035 47.5048 68.0139 49.203 68.0139 51.3328C68.0139 52.6521 68.5894 53.7972 69.5477 54.4849C69.7807 54.6512 70.0381 54.7885 70.3127 54.8961C70.2506 55.1456 70.1628 55.399 70.0302 55.6524C69.9972 55.7191 69.949 55.8003 69.0659 57.1882H70.8631C71.1891 56.6708 71.2914 56.5005 71.3185 56.455C71.5594 56.0332 71.7257 55.599 71.8174 55.1647H74.2363V57.1889H75.7345V47.4844H74.2356ZM69.4646 51.3328C69.4646 49.8966 70.5324 48.8433 71.8894 48.8433H74.2356V53.8077H71.8689C70.5225 53.7952 69.4646 52.7643 69.4646 51.3328Z" fill="#004374"/>
</svg>
