<svg width="28" height="28" viewBox="0 0 28 28" fill="none" xmlns="http://www.w3.org/2000/svg">
<path d="M25.074 18.914H18.732C18.3607 18.914 18.0046 19.0615 17.7421 19.3241C17.4795 19.5866 17.332 19.9427 17.332 20.314C17.332 20.6853 17.4795 21.0414 17.7421 21.3039C18.0046 21.5665 18.3607 21.714 18.732 21.714H22.092C20.5477 23.3278 18.5562 24.443 16.3732 24.9164C14.1903 25.3897 11.9157 25.1994 9.84169 24.3701C7.76768 23.5408 5.98902 22.1103 4.73423 20.2624C3.47944 18.4145 2.80585 16.2337 2.8 14C2.8 13.6287 2.6525 13.2726 2.38995 13.0101C2.1274 12.7475 1.7713 12.6 1.4 12.6C1.0287 12.6 0.672601 12.7475 0.41005 13.0101C0.1475 13.2726 0 13.6287 0 14C0.00740132 16.7339 0.815109 19.4058 2.32344 21.686C3.83178 23.9662 5.97473 25.7549 8.48784 26.8313C11.0009 27.9077 13.7742 28.2248 16.4654 27.7433C19.1566 27.2618 21.648 26.003 23.632 24.122V26.6C23.632 26.9713 23.7795 27.3274 24.0421 27.59C24.3046 27.8525 24.6607 28 25.032 28C25.4033 28 25.7594 27.8525 26.0219 27.59C26.2845 27.3274 26.432 26.9713 26.432 26.6V20.3C26.4285 19.9383 26.2852 19.592 26.0321 19.3336C25.7789 19.0752 25.4356 18.9248 25.074 18.914ZM14 0C10.4109 0.0102371 6.96289 1.39848 4.368 3.878V1.4C4.368 1.0287 4.2205 0.672601 3.95795 0.41005C3.6954 0.1475 3.3393 0 2.968 0C2.5967 0 2.2406 0.1475 1.97805 0.41005C1.7155 0.672601 1.568 1.0287 1.568 1.4V7.7C1.568 8.0713 1.7155 8.4274 1.97805 8.68995C2.2406 8.9525 2.5967 9.1 2.968 9.1H9.268C9.6393 9.1 9.9954 8.9525 10.2579 8.68995C10.5205 8.4274 10.668 8.0713 10.668 7.7C10.668 7.3287 10.5205 6.9726 10.2579 6.71005C9.9954 6.4475 9.6393 6.3 9.268 6.3H5.908C7.45145 4.68702 9.44173 3.5721 11.6234 3.09835C13.805 2.6246 16.0784 2.81364 18.1518 3.64121C20.2253 4.46877 22.0041 5.8971 23.2599 7.74284C24.5158 9.58859 25.1914 11.7675 25.2 14C25.2 14.3713 25.3475 14.7274 25.61 14.9899C25.8726 15.2525 26.2287 15.4 26.6 15.4C26.9713 15.4 27.3274 15.2525 27.59 14.9899C27.8525 14.7274 28 14.3713 28 14C28 12.1615 27.6379 10.341 26.9343 8.64243C26.2307 6.94387 25.1995 5.40053 23.8995 4.1005C22.5995 2.80048 21.0561 1.76925 19.3576 1.06569C17.659 0.362121 15.8385 0 14 0Z" fill="#0067B1"/>
</svg>
