<svg width="20" height="25" viewBox="0 0 20 25" fill="none" xmlns="http://www.w3.org/2000/svg">
<path d="M20 12.5C20 12.1685 19.8683 11.8505 19.6339 11.6161C19.3995 11.3817 19.0815 11.25 18.75 11.25H9.2625L12.1375 8.3875C12.254 8.27095 12.3465 8.13259 12.4096 7.98031C12.4727 7.82803 12.5051 7.66482 12.5051 7.5C12.5051 7.33518 12.4727 7.17197 12.4096 7.01969C12.3465 6.86741 12.254 6.72905 12.1375 6.6125C12.021 6.49595 11.8826 6.4035 11.7303 6.34043C11.578 6.27735 11.4148 6.24489 11.25 6.24489C11.0852 6.24489 10.922 6.27735 10.7697 6.34043C10.6174 6.4035 10.479 6.49595 10.3625 6.6125L5.3625 11.6125C5.2487 11.7314 5.15949 11.8716 5.1 12.025C4.97498 12.3293 4.97498 12.6707 5.1 12.975C5.15949 13.1284 5.2487 13.2686 5.3625 13.3875L10.3625 18.3875C10.4787 18.5047 10.617 18.5977 10.7693 18.6611C10.9216 18.7246 11.085 18.7572 11.25 18.7572C11.415 18.7572 11.5784 18.7246 11.7307 18.6611C11.883 18.5977 12.0213 18.5047 12.1375 18.3875C12.2547 18.2713 12.3477 18.133 12.4111 17.9807C12.4746 17.8284 12.5072 17.665 12.5072 17.5C12.5072 17.335 12.4746 17.1716 12.4111 17.0193C12.3477 16.867 12.2547 16.7287 12.1375 16.6125L9.2625 13.75H18.75C19.0815 13.75 19.3995 13.6183 19.6339 13.3839C19.8683 13.1495 20 12.8315 20 12.5ZM16.25 0H3.75C2.75544 0 1.80161 0.395088 1.09835 1.09835C0.395088 1.80161 0 2.75544 0 3.75V21.25C0 22.2446 0.395088 23.1984 1.09835 23.9017C1.80161 24.6049 2.75544 25 3.75 25H16.25C17.2446 25 18.1984 24.6049 18.9017 23.9017C19.6049 23.1984 20 22.2446 20 21.25V17.5C20 17.1685 19.8683 16.8505 19.6339 16.6161C19.3995 16.3817 19.0815 16.25 18.75 16.25C18.4185 16.25 18.1005 16.3817 17.8661 16.6161C17.6317 16.8505 17.5 17.1685 17.5 17.5V21.25C17.5 21.5815 17.3683 21.8995 17.1339 22.1339C16.8995 22.3683 16.5815 22.5 16.25 22.5H3.75C3.41848 22.5 3.10054 22.3683 2.86612 22.1339C2.6317 21.8995 2.5 21.5815 2.5 21.25V3.75C2.5 3.41848 2.6317 3.10054 2.86612 2.86612C3.10054 2.6317 3.41848 2.5 3.75 2.5H16.25C16.5815 2.5 16.8995 2.6317 17.1339 2.86612C17.3683 3.10054 17.5 3.41848 17.5 3.75V7.5C17.5 7.83152 17.6317 8.14946 17.8661 8.38388C18.1005 8.6183 18.4185 8.75 18.75 8.75C19.0815 8.75 19.3995 8.6183 19.6339 8.38388C19.8683 8.14946 20 7.83152 20 7.5V3.75C20 2.75544 19.6049 1.80161 18.9017 1.09835C18.1984 0.395088 17.2446 0 16.25 0Z" fill="#0067B1"/>
</svg>
